<svg width="291" height="28" viewBox="0 0 291 28" fill="none" xmlns="http://www.w3.org/2000/svg">
<path d="M1.32005 8.52002H4.8846e-05V0.120019H3.36005C4.98005 0.120019 6.18005 1.32002 6.18005 2.82002C6.18005 4.32002 4.98005 5.52002 3.36005 5.52002H1.32005V8.52002ZM1.32005 1.32002V4.32002H3.36005C4.20005 4.32002 4.86005 3.66002 4.86005 2.82002C4.86005 1.98002 4.20005 1.32002 3.36005 1.32002H1.32005ZM9.30146 2.64002C10.7415 2.64002 11.7015 3.60002 11.7015 4.86002V8.52002H10.5615V7.70402H10.5495C10.2855 8.11202 9.57746 8.64002 8.66546 8.64002C7.51346 8.64002 6.72146 7.86002 6.72146 6.96002C6.72146 6.00002 7.38146 5.32802 8.52146 5.13602L10.5015 4.80002V4.77602C10.5015 4.20002 10.0095 3.72002 9.30146 3.72002C8.61746 3.72002 8.14946 4.10402 7.78946 4.48802L7.02146 3.74402C7.47746 3.21602 8.20946 2.64002 9.30146 2.64002ZM8.88146 7.62002C9.78146 7.62002 10.5015 6.90002 10.5015 5.94002V5.76002L8.82146 6.06002C8.22146 6.16802 7.92146 6.48002 7.92146 6.84002C7.92146 7.26002 8.28146 7.62002 8.88146 7.62002ZM15.6706 7.10402L17.1226 2.76002H18.3586L16.0186 9.18002C15.5746 10.404 14.8786 11.04 13.9186 11.04C13.5226 11.04 13.1746 10.932 13.0186 10.86V9.72002C13.1506 9.81602 13.4266 9.92402 13.7386 9.92402C14.2186 9.92402 14.5906 9.60002 14.7826 9.12002L15.0226 8.52002L12.4786 2.76002H13.7866L15.6466 7.10402H15.6706ZM24.5457 8.64002C22.8657 8.64002 21.5457 7.32002 21.5457 5.64002C21.5457 3.96002 22.8657 2.64002 24.5457 2.64002C26.2257 2.64002 27.5457 3.96002 27.5457 5.64002C27.5457 7.32002 26.2257 8.64002 24.5457 8.64002ZM24.5457 7.50002C25.5657 7.50002 26.3457 6.72002 26.3457 5.64002C26.3457 4.56002 25.5657 3.78002 24.5457 3.78002C23.5257 3.78002 22.7457 4.56002 22.7457 5.64002C22.7457 6.72002 23.5257 7.50002 24.5457 7.50002ZM30.0666 8.52002H28.8666V2.76002H30.0666V3.57602H30.0786C30.3426 3.16802 31.0026 2.64002 31.8666 2.64002C33.1866 2.64002 34.1466 3.60002 34.1466 5.16002V8.52002H32.9466V5.16002C32.9466 4.32002 32.4066 3.78002 31.6266 3.78002C30.7266 3.78002 30.0666 4.44002 30.0666 5.40002V8.52002ZM37.029 8.52002H35.829V0.120019H37.029V8.52002ZM41.241 7.10402L42.693 2.76002H43.929L41.589 9.18002C41.145 10.404 40.449 11.04 39.489 11.04C39.093 11.04 38.745 10.932 38.589 10.86V9.72002C38.721 9.81602 38.997 9.92402 39.309 9.92402C39.789 9.92402 40.161 9.60002 40.353 9.12002L40.593 8.52002L38.049 2.76002H39.357L41.217 7.10402H41.241ZM49.696 2.64002C51.136 2.64002 52.096 3.60002 52.096 4.86002V8.52002H50.956V7.70402H50.944C50.68 8.11202 49.972 8.64002 49.06 8.64002C47.908 8.64002 47.116 7.86002 47.116 6.96002C47.116 6.00002 47.776 5.32802 48.916 5.13602L50.896 4.80002V4.77602C50.896 4.20002 50.404 3.72002 49.696 3.72002C49.012 3.72002 48.544 4.10402 48.184 4.48802L47.416 3.74402C47.872 3.21602 48.604 2.64002 49.696 2.64002ZM49.276 7.62002C50.176 7.62002 50.896 6.90002 50.896 5.94002V5.76002L49.216 6.06002C48.616 6.16802 48.316 6.48002 48.316 6.84002C48.316 7.26002 48.676 7.62002 49.276 7.62002ZM55.3932 8.52002H54.1932V3.90002H53.1132V2.76002H54.1932V1.92002C54.1932 0.660019 54.8532 1.90735e-05 55.9932 1.90735e-05C56.3892 1.90735e-05 56.7372 0.108019 56.8932 0.180019V1.32002C56.7612 1.24802 56.4972 1.14002 56.2332 1.14002C55.6932 1.14002 55.3932 1.44002 55.3932 2.04002V2.76002H56.7732V3.90002H55.3932V8.52002ZM60.1285 8.58002C58.9885 8.58002 58.3285 7.92002 58.3285 6.66002V3.90002H57.2485V2.76002H57.9085C58.2685 2.76002 58.4485 2.58002 58.4485 2.10002V0.840019H59.5285V2.76002H60.9085V3.90002H59.5285V6.54002C59.5285 7.14002 59.8285 7.44002 60.3685 7.44002C60.6325 7.44002 60.8965 7.33202 61.0285 7.26002V8.40002C60.8725 8.47202 60.5245 8.58002 60.1285 8.58002ZM64.8699 8.64002C63.1899 8.64002 61.8699 7.32002 61.8699 5.64002C61.8699 3.96002 63.1899 2.64002 64.8099 2.64002C66.4299 2.64002 67.6299 3.84002 67.6299 5.46002C67.6299 5.72402 67.5939 5.95202 67.5699 6.06002H63.1299C63.2499 6.84002 63.9699 7.50002 64.9299 7.50002C65.6739 7.50002 66.1899 7.14002 66.5499 6.80402L67.3299 7.57202C66.9579 8.04002 66.0939 8.64002 64.8699 8.64002ZM63.1059 5.10002H66.3819C66.2139 4.28402 65.6739 3.72002 64.8099 3.72002C63.8859 3.72002 63.3339 4.28402 63.1059 5.10002ZM70.0861 8.52002H68.8861V2.76002H70.0861V3.51602H70.1101C70.3621 3.14402 70.9981 2.64002 71.8261 2.64002H72.1261V3.90002C72.0181 3.87602 71.8261 3.84002 71.6461 3.84002C70.8061 3.84002 70.0861 4.56002 70.0861 5.58002V8.52002ZM78.3872 8.52002H77.0672L74.7872 2.76002H76.0832L77.7392 7.11602H77.7632L79.4192 2.76002H80.6672L78.3872 8.52002ZM84.2644 8.64002C82.5844 8.64002 81.2644 7.32002 81.2644 5.64002C81.2644 3.96002 82.5844 2.64002 84.2044 2.64002C85.8244 2.64002 87.0244 3.84002 87.0244 5.46002C87.0244 5.72402 86.9884 5.95202 86.9644 6.06002H82.5244C82.6444 6.84002 83.3644 7.50002 84.3244 7.50002C85.0684 7.50002 85.5844 7.14002 85.9444 6.80402L86.7244 7.57202C86.3524 8.04002 85.4884 8.64002 84.2644 8.64002ZM82.5004 5.10002H85.7764C85.6084 4.28402 85.0684 3.72002 84.2044 3.72002C83.2804 3.72002 82.7284 4.28402 82.5004 5.10002ZM89.4807 8.52002H88.2807V2.76002H89.4807V3.51602H89.5047C89.7567 3.14402 90.3927 2.64002 91.2207 2.64002H91.5207V3.90002C91.4127 3.87602 91.2207 3.84002 91.0407 3.84002C90.2007 3.84002 89.4807 4.56002 89.4807 5.58002V8.52002ZM93.2649 1.68002C92.9049 1.68002 92.5449 1.38002 92.5449 0.960019C92.5449 0.540019 92.9049 0.240019 93.2649 0.240019C93.6249 0.240019 93.9849 0.540019 93.9849 0.960019C93.9849 1.38002 93.6249 1.68002 93.2649 1.68002ZM93.8649 8.52002H92.6649V2.76002H93.8649V8.52002ZM97.4049 8.52002H96.2049V3.90002H95.1249V2.76002H96.2049V1.92002C96.2049 0.660019 96.8649 1.90735e-05 98.0049 1.90735e-05C98.4009 1.90735e-05 98.7489 0.108019 98.9049 0.180019V1.32002C98.7729 1.24802 98.5089 1.14002 98.2449 1.14002C97.7049 1.14002 97.4049 1.44002 97.4049 2.04002V2.76002H98.7849V3.90002H97.4049V8.52002ZM102.272 7.10402L103.724 2.76002H104.96L102.62 9.18002C102.176 10.404 101.48 11.04 100.52 11.04C100.124 11.04 99.7762 10.932 99.6202 10.86V9.72002C99.7522 9.81602 100.028 9.92402 100.34 9.92402C100.82 9.92402 101.192 9.60002 101.384 9.12002L101.624 8.52002L99.0802 2.76002H100.388L102.248 7.10402H102.272ZM106.636 1.68002C106.276 1.68002 105.916 1.38002 105.916 0.960019C105.916 0.540019 106.276 0.240019 106.636 0.240019C106.996 0.240019 107.356 0.540019 107.356 0.960019C107.356 1.38002 106.996 1.68002 106.636 1.68002ZM107.236 8.52002H106.036V2.76002H107.236V8.52002ZM110.176 8.52002H108.976V2.76002H110.176V3.57602H110.188C110.452 3.16802 111.112 2.64002 111.976 2.64002C113.296 2.64002 114.256 3.60002 114.256 5.16002V8.52002H113.056V5.16002C113.056 4.32002 112.516 3.78002 111.736 3.78002C110.836 3.78002 110.176 4.44002 110.176 5.40002V8.52002ZM118.218 11.04C117.03 11.04 116.058 10.356 115.698 9.84002L116.538 9.06002C116.802 9.42002 117.474 9.90002 118.218 9.90002C119.298 9.90002 119.958 9.18002 119.958 8.04002V7.52402H119.946C119.682 7.89602 118.998 8.40002 118.098 8.40002C116.718 8.40002 115.518 7.20002 115.518 5.52002C115.518 3.84002 116.718 2.64002 118.098 2.64002C118.998 2.64002 119.682 3.14402 119.946 3.51602H119.958V2.76002H121.158V8.04002C121.158 9.78002 119.958 11.04 118.218 11.04ZM118.338 7.26002C119.238 7.26002 119.958 6.54002 119.958 5.52002C119.958 4.50002 119.238 3.78002 118.338 3.78002C117.438 3.78002 116.718 4.50002 116.718 5.52002C116.718 6.54002 117.438 7.26002 118.338 7.26002ZM127.711 8.58002C126.571 8.58002 125.911 7.92002 125.911 6.66002V3.90002H124.831V2.76002H125.491C125.851 2.76002 126.031 2.58002 126.031 2.10002V0.840019H127.111V2.76002H128.491V3.90002H127.111V6.54002C127.111 7.14002 127.411 7.44002 127.951 7.44002C128.215 7.44002 128.479 7.33202 128.611 7.26002V8.40002C128.455 8.47202 128.107 8.58002 127.711 8.58002ZM131.189 8.52002H129.989V0.120019H131.189V3.57602H131.201C131.465 3.16802 132.125 2.64002 132.989 2.64002C134.309 2.64002 135.269 3.60002 135.269 5.16002V8.52002H134.069V5.16002C134.069 4.32002 133.529 3.78002 132.749 3.78002C131.849 3.78002 131.189 4.44002 131.189 5.40002V8.52002ZM139.53 8.64002C137.85 8.64002 136.53 7.32002 136.53 5.64002C136.53 3.96002 137.85 2.64002 139.47 2.64002C141.09 2.64002 142.29 3.84002 142.29 5.46002C142.29 5.72402 142.254 5.95202 142.23 6.06002H137.79C137.91 6.84002 138.63 7.50002 139.59 7.50002C140.334 7.50002 140.85 7.14002 141.21 6.80402L141.99 7.57202C141.618 8.04002 140.754 8.64002 139.53 8.64002ZM137.766 5.10002H141.042C140.874 4.28402 140.334 3.72002 139.47 3.72002C138.546 3.72002 137.994 4.28402 137.766 5.10002ZM148.172 8.64002C147.08 8.64002 146.24 8.02802 145.892 7.56002L146.672 6.78002C146.948 7.11602 147.524 7.56002 148.184 7.56002C148.856 7.56002 149.192 7.23602 149.192 6.85202C149.192 5.88002 146.132 6.36002 146.132 4.32002C146.132 3.42002 146.912 2.64002 148.232 2.64002C149.24 2.64002 149.96 3.08402 150.272 3.42002L149.492 4.20002C149.264 3.99602 148.796 3.72002 148.232 3.72002C147.632 3.72002 147.332 4.02002 147.332 4.32002C147.332 5.28002 150.392 4.80002 150.392 6.84002C150.392 7.80002 149.552 8.64002 148.172 8.64002ZM154.354 8.64002C152.674 8.64002 151.354 7.32002 151.354 5.64002C151.354 3.96002 152.674 2.64002 154.294 2.64002C155.914 2.64002 157.114 3.84002 157.114 5.46002C157.114 5.72402 157.078 5.95202 157.054 6.06002H152.614C152.734 6.84002 153.454 7.50002 154.414 7.50002C155.158 7.50002 155.674 7.14002 156.034 6.80402L156.814 7.57202C156.442 8.04002 155.578 8.64002 154.354 8.64002ZM152.59 5.10002H155.866C155.698 4.28402 155.158 3.72002 154.294 3.72002C153.37 3.72002 152.818 4.28402 152.59 5.10002ZM159.571 8.52002H158.371V2.76002H159.571V3.57602H159.583C159.847 3.16802 160.507 2.64002 161.371 2.64002C162.691 2.64002 163.651 3.60002 163.651 5.16002V8.52002H162.451V5.16002C162.451 4.32002 161.911 3.78002 161.131 3.78002C160.231 3.78002 159.571 4.44002 159.571 5.40002V8.52002ZM167.613 8.64002C166.173 8.64002 164.913 7.38002 164.913 5.64002C164.913 3.90002 166.173 2.64002 167.613 2.64002C168.597 2.64002 169.317 3.16802 169.581 3.57602H169.593V0.120019H170.793V8.52002H169.593V7.70402H169.581C169.317 8.11202 168.597 8.64002 167.613 8.64002ZM167.853 7.50002C168.813 7.50002 169.593 6.72002 169.593 5.64002C169.593 4.56002 168.813 3.78002 167.853 3.78002C166.893 3.78002 166.113 4.56002 166.113 5.64002C166.113 6.72002 166.893 7.50002 167.853 7.50002ZM175.178 8.64002C173.498 8.64002 172.178 7.32002 172.178 5.64002C172.178 3.96002 173.498 2.64002 175.118 2.64002C176.738 2.64002 177.938 3.84002 177.938 5.46002C177.938 5.72402 177.902 5.95202 177.878 6.06002H173.438C173.558 6.84002 174.278 7.50002 175.238 7.50002C175.982 7.50002 176.498 7.14002 176.858 6.80402L177.638 7.57202C177.266 8.04002 176.402 8.64002 175.178 8.64002ZM173.414 5.10002H176.69C176.522 4.28402 175.982 3.72002 175.118 3.72002C174.194 3.72002 173.642 4.28402 173.414 5.10002ZM180.395 8.52002H179.195V2.76002H180.395V3.51602H180.419C180.671 3.14402 181.307 2.64002 182.135 2.64002H182.435V3.90002C182.327 3.87602 182.135 3.84002 181.955 3.84002C181.115 3.84002 180.395 4.56002 180.395 5.58002V8.52002ZM183.344 8.64002C182.924 8.64002 182.564 8.28002 182.564 7.86002C182.564 7.44002 182.924 7.08002 183.344 7.08002C183.764 7.08002 184.124 7.44002 184.124 7.86002C184.124 8.28002 183.764 8.64002 183.344 8.64002ZM194.221 8.52002H187.861V7.26002L192.541 1.38002H188.041V0.120019H194.101V1.38002L189.421 7.26002H194.221V8.52002ZM198.007 8.64002C196.327 8.64002 195.007 7.32002 195.007 5.64002C195.007 3.96002 196.327 2.64002 197.947 2.64002C199.567 2.64002 200.767 3.84002 200.767 5.46002C200.767 5.72402 200.731 5.95202 200.707 6.06002H196.267C196.387 6.84002 197.107 7.50002 198.067 7.50002C198.811 7.50002 199.327 7.14002 199.687 6.80402L200.467 7.57202C200.095 8.04002 199.231 8.64002 198.007 8.64002ZM196.243 5.10002H199.519C199.351 4.28402 198.811 3.72002 197.947 3.72002C197.023 3.72002 196.471 4.28402 196.243 5.10002ZM203.223 11.04H202.023V2.76002H203.223V3.57602H203.235C203.499 3.16802 204.219 2.64002 205.203 2.64002C206.643 2.64002 207.903 3.90002 207.903 5.64002C207.903 7.38002 206.643 8.64002 205.203 8.64002C204.219 8.64002 203.499 8.11202 203.235 7.70402H203.223V11.04ZM204.963 7.50002C205.923 7.50002 206.703 6.72002 206.703 5.64002C206.703 4.56002 205.923 3.78002 204.963 3.78002C204.003 3.78002 203.223 4.56002 203.223 5.64002C203.223 6.72002 204.003 7.50002 204.963 7.50002ZM211.558 8.58002C210.418 8.58002 209.758 7.92002 209.758 6.66002V3.90002H208.678V2.76002H209.338C209.698 2.76002 209.878 2.58002 209.878 2.10002V0.840019H210.958V2.76002H212.338V3.90002H210.958V6.54002C210.958 7.14002 211.258 7.44002 211.798 7.44002C212.062 7.44002 212.326 7.33202 212.458 7.26002V8.40002C212.302 8.47202 211.954 8.58002 211.558 8.58002ZM216.3 8.64002C214.62 8.64002 213.3 7.32002 213.3 5.64002C213.3 3.96002 214.62 2.64002 216.3 2.64002C217.98 2.64002 219.3 3.96002 219.3 5.64002C219.3 7.32002 217.98 8.64002 216.3 8.64002ZM216.3 7.50002C217.32 7.50002 218.1 6.72002 218.1 5.64002C218.1 4.56002 217.32 3.78002 216.3 3.78002C215.28 3.78002 214.5 4.56002 214.5 5.64002C214.5 6.72002 215.28 7.50002 216.3 7.50002ZM224.586 8.52002H223.386V2.76002H224.586V3.57602H224.598C224.862 3.16802 225.522 2.64002 226.386 2.64002C227.706 2.64002 228.666 3.60002 228.666 5.16002V8.52002H227.466V5.16002C227.466 4.32002 226.926 3.78002 226.146 3.78002C225.246 3.78002 224.586 4.44002 224.586 5.40002V8.52002ZM232.928 8.64002C231.248 8.64002 229.928 7.32002 229.928 5.64002C229.928 3.96002 231.248 2.64002 232.868 2.64002C234.488 2.64002 235.688 3.84002 235.688 5.46002C235.688 5.72402 235.652 5.95202 235.628 6.06002H231.188C231.308 6.84002 232.028 7.50002 232.988 7.50002C233.732 7.50002 234.248 7.14002 234.608 6.80402L235.388 7.57202C235.016 8.04002 234.152 8.64002 232.928 8.64002ZM231.164 5.10002H234.44C234.272 4.28402 233.732 3.72002 232.868 3.72002C231.944 3.72002 231.392 4.28402 231.164 5.10002ZM239.825 8.52002H238.505L236.225 2.76002H237.521L239.177 7.11602H239.201L240.857 2.76002H242.105L239.825 8.52002ZM245.702 8.64002C244.022 8.64002 242.702 7.32002 242.702 5.64002C242.702 3.96002 244.022 2.64002 245.642 2.64002C247.262 2.64002 248.462 3.84002 248.462 5.46002C248.462 5.72402 248.426 5.95202 248.402 6.06002H243.962C244.082 6.84002 244.802 7.50002 245.762 7.50002C246.506 7.50002 247.022 7.14002 247.382 6.80402L248.162 7.57202C247.79 8.04002 246.926 8.64002 245.702 8.64002ZM243.938 5.10002H247.214C247.046 4.28402 246.506 3.72002 245.642 3.72002C244.718 3.72002 244.166 4.28402 243.938 5.10002ZM250.918 8.52002H249.718V2.76002H250.918V3.51602H250.942C251.194 3.14402 251.83 2.64002 252.658 2.64002H252.958V3.90002C252.85 3.87602 252.658 3.84002 252.478 3.84002C251.638 3.84002 250.918 4.56002 250.918 5.58002V8.52002ZM258.434 8.64002C257.342 8.64002 256.502 8.02802 256.154 7.56002L256.934 6.78002C257.21 7.11602 257.786 7.56002 258.446 7.56002C259.118 7.56002 259.454 7.23602 259.454 6.85202C259.454 5.88002 256.394 6.36002 256.394 4.32002C256.394 3.42002 257.174 2.64002 258.494 2.64002C259.502 2.64002 260.222 3.08402 260.534 3.42002L259.754 4.20002C259.526 3.99602 259.058 3.72002 258.494 3.72002C257.894 3.72002 257.594 4.02002 257.594 4.32002C257.594 5.28002 260.654 4.80002 260.654 6.84002C260.654 7.80002 259.814 8.64002 258.434 8.64002ZM263.236 8.52002H262.036V0.120019H263.236V3.57602H263.248C263.512 3.16802 264.172 2.64002 265.036 2.64002C266.356 2.64002 267.316 3.60002 267.316 5.16002V8.52002H266.116V5.16002C266.116 4.32002 265.576 3.78002 264.796 3.78002C263.896 3.78002 263.236 4.44002 263.236 5.40002V8.52002ZM271.157 2.64002C272.597 2.64002 273.557 3.60002 273.557 4.86002V8.52002H272.417V7.70402H272.405C272.141 8.11202 271.433 8.64002 270.521 8.64002C269.369 8.64002 268.577 7.86002 268.577 6.96002C268.577 6.00002 269.237 5.32802 270.377 5.13602L272.357 4.80002V4.77602C272.357 4.20002 271.865 3.72002 271.157 3.72002C270.473 3.72002 270.005 4.10402 269.645 4.48802L268.877 3.74402C269.333 3.21602 270.065 2.64002 271.157 2.64002ZM270.737 7.62002C271.637 7.62002 272.357 6.90002 272.357 5.94002V5.76002L270.677 6.06002C270.077 6.16802 269.777 6.48002 269.777 6.84002C269.777 7.26002 270.137 7.62002 270.737 7.62002ZM276.371 8.52002H275.171V2.76002H276.371V3.51602H276.395C276.647 3.14402 277.283 2.64002 278.111 2.64002H278.411V3.90002C278.303 3.87602 278.111 3.84002 277.931 3.84002C277.091 3.84002 276.371 4.56002 276.371 5.58002V8.52002ZM282.018 8.64002C280.338 8.64002 279.018 7.32002 279.018 5.64002C279.018 3.96002 280.338 2.64002 281.958 2.64002C283.578 2.64002 284.778 3.84002 284.778 5.46002C284.778 5.72402 284.742 5.95202 284.718 6.06002H280.278C280.398 6.84002 281.118 7.50002 282.078 7.50002C282.822 7.50002 283.338 7.14002 283.698 6.80402L284.478 7.57202C284.106 8.04002 283.242 8.64002 282.018 8.64002ZM280.254 5.10002H283.53C283.362 4.28402 282.822 3.72002 281.958 3.72002C281.034 3.72002 280.482 4.28402 280.254 5.10002ZM287.895 8.64002C286.803 8.64002 285.963 8.02802 285.615 7.56002L286.395 6.78002C286.671 7.11602 287.247 7.56002 287.907 7.56002C288.579 7.56002 288.915 7.23602 288.915 6.85202C288.915 5.88002 285.855 6.36002 285.855 4.32002C285.855 3.42002 286.635 2.64002 287.955 2.64002C288.963 2.64002 289.683 3.08402 289.995 3.42002L289.215 4.20002C288.987 3.99602 288.519 3.72002 287.955 3.72002C287.355 3.72002 287.055 4.02002 287.055 4.32002C287.055 5.28002 290.115 4.80002 290.115 6.84002C290.115 7.80002 289.275 8.64002 287.895 8.64002ZM50.258 27.04H49.058V18.76H50.258V19.576H50.27C50.534 19.168 51.254 18.64 52.238 18.64C53.678 18.64 54.938 19.9 54.938 21.64C54.938 23.38 53.678 24.64 52.238 24.64C51.254 24.64 50.534 24.112 50.27 23.704H50.258V27.04ZM51.998 23.5C52.958 23.5 53.738 22.72 53.738 21.64C53.738 20.56 52.958 19.78 51.998 19.78C51.038 19.78 50.258 20.56 50.258 21.64C50.258 22.72 51.038 23.5 51.998 23.5ZM58.4733 18.64C59.9133 18.64 60.8733 19.6 60.8733 20.86V24.52H59.7333V23.704H59.7213C59.4573 24.112 58.7493 24.64 57.8373 24.64C56.6853 24.64 55.8933 23.86 55.8933 22.96C55.8933 22 56.5533 21.328 57.6933 21.136L59.6733 20.8V20.776C59.6733 20.2 59.1813 19.72 58.4733 19.72C57.7893 19.72 57.3213 20.104 56.9613 20.488L56.1933 19.744C56.6493 19.216 57.3813 18.64 58.4733 18.64ZM58.0533 23.62C58.9533 23.62 59.6733 22.9 59.6733 21.94V21.76L57.9933 22.06C57.3933 22.168 57.0933 22.48 57.0933 22.84C57.0933 23.26 57.4533 23.62 58.0533 23.62ZM64.8425 23.104L66.2945 18.76H67.5305L65.1905 25.18C64.7465 26.404 64.0505 27.04 63.0905 27.04C62.6945 27.04 62.3465 26.932 62.1905 26.86V25.72C62.3225 25.816 62.5985 25.924 62.9105 25.924C63.3905 25.924 63.7625 25.6 63.9545 25.12L64.1945 24.52L61.6505 18.76H62.9585L64.8185 23.104H64.8425ZM69.7463 24.52H68.5463V18.76H69.7463V19.576H69.7583C69.9623 19.168 70.5623 18.64 71.4263 18.64C72.3383 18.64 72.9863 19.18 73.2143 19.588H73.2383C73.4663 19.18 74.1623 18.64 75.2063 18.64C76.3463 18.64 77.3063 19.6 77.3063 21.1V24.52H76.1063V21.1C76.1063 20.26 75.5663 19.78 74.9063 19.78C74.1263 19.78 73.5263 20.38 73.5263 21.34V24.52H72.3263V21.1C72.3263 20.26 71.7863 19.78 71.1263 19.78C70.3463 19.78 69.7463 20.38 69.7463 21.34V24.52ZM81.5691 24.64C79.8891 24.64 78.5691 23.32 78.5691 21.64C78.5691 19.96 79.8891 18.64 81.5091 18.64C83.1291 18.64 84.3291 19.84 84.3291 21.46C84.3291 21.724 84.2931 21.952 84.2691 22.06H79.8291C79.9491 22.84 80.6691 23.5 81.6291 23.5C82.3731 23.5 82.8891 23.14 83.2491 22.804L84.0291 23.572C83.6571 24.04 82.7931 24.64 81.5691 24.64ZM79.8051 21.1H83.0811C82.9131 20.284 82.3731 19.72 81.5091 19.72C80.5851 19.72 80.0331 20.284 79.8051 21.1ZM86.7854 24.52H85.5854V18.76H86.7854V19.576H86.7974C87.0614 19.168 87.7214 18.64 88.5854 18.64C89.9054 18.64 90.8654 19.6 90.8654 21.16V24.52H89.6654V21.16C89.6654 20.32 89.1254 19.78 88.3454 19.78C87.4454 19.78 86.7854 20.44 86.7854 21.4V24.52ZM94.7105 24.58C93.5705 24.58 92.9105 23.92 92.9105 22.66V19.9H91.8305V18.76H92.4905C92.8505 18.76 93.0305 18.58 93.0305 18.1V16.84H94.1105V18.76H95.4905V19.9H94.1105V22.54C94.1105 23.14 94.4105 23.44 94.9505 23.44C95.2145 23.44 95.4785 23.332 95.6105 23.26V24.4C95.4545 24.472 95.1065 24.58 94.7105 24.58ZM100.72 24.52H99.5204V16.12H100.72V24.52ZM103.12 17.68C102.76 17.68 102.4 17.38 102.4 16.96C102.4 16.54 102.76 16.24 103.12 16.24C103.48 16.24 103.84 16.54 103.84 16.96C103.84 17.38 103.48 17.68 103.12 17.68ZM103.72 24.52H102.52V18.76H103.72V24.52ZM106.66 24.52H105.46V18.76H106.66V19.576H106.672C106.936 19.168 107.596 18.64 108.46 18.64C109.78 18.64 110.74 19.6 110.74 21.16V24.52H109.54V21.16C109.54 20.32 109 19.78 108.22 19.78C107.32 19.78 106.66 20.44 106.66 21.4V24.52ZM113.623 24.52H112.423V16.12H113.623V21.4L116.083 18.76H117.583L115.363 21.1L117.763 24.52H116.383L114.583 21.94L113.623 22.96V24.52ZM120.352 24.64C119.26 24.64 118.42 24.028 118.072 23.56L118.852 22.78C119.128 23.116 119.704 23.56 120.364 23.56C121.036 23.56 121.372 23.236 121.372 22.852C121.372 21.88 118.312 22.36 118.312 20.32C118.312 19.42 119.092 18.64 120.412 18.64C121.42 18.64 122.14 19.084 122.452 19.42L121.672 20.2C121.444 19.996 120.976 19.72 120.412 19.72C119.812 19.72 119.512 20.02 119.512 20.32C119.512 21.28 122.572 20.8 122.572 22.84C122.572 23.8 121.732 24.64 120.352 24.64ZM128.885 24.52H127.745L125.705 18.76H126.989L128.357 22.816H128.381L129.689 18.76H130.649L131.957 22.816H131.981L133.349 18.76H134.585L132.545 24.52H131.405L130.157 20.644H130.133L128.885 24.52ZM136.202 17.68C135.842 17.68 135.482 17.38 135.482 16.96C135.482 16.54 135.842 16.24 136.202 16.24C136.562 16.24 136.922 16.54 136.922 16.96C136.922 17.38 136.562 17.68 136.202 17.68ZM136.802 24.52H135.602V18.76H136.802V24.52ZM140.882 24.58C139.742 24.58 139.082 23.92 139.082 22.66V19.9H138.002V18.76H138.662C139.022 18.76 139.202 18.58 139.202 18.1V16.84H140.282V18.76H141.662V19.9H140.282V22.54C140.282 23.14 140.582 23.44 141.122 23.44C141.386 23.44 141.65 23.332 141.782 23.26V24.4C141.626 24.472 141.278 24.58 140.882 24.58ZM144.361 24.52H143.161V16.12H144.361V19.576H144.373C144.637 19.168 145.297 18.64 146.161 18.64C147.481 18.64 148.441 19.6 148.441 21.16V24.52H147.241V21.16C147.241 20.32 146.701 19.78 145.921 19.78C145.021 19.78 144.361 20.44 144.361 21.4V24.52ZM152.702 24.64C151.022 24.64 149.702 23.32 149.702 21.64C149.702 19.96 151.022 18.64 152.702 18.64C154.382 18.64 155.702 19.96 155.702 21.64C155.702 23.32 154.382 24.64 152.702 24.64ZM152.702 23.5C153.722 23.5 154.502 22.72 154.502 21.64C154.502 20.56 153.722 19.78 152.702 19.78C151.682 19.78 150.902 20.56 150.902 21.64C150.902 22.72 151.682 23.5 152.702 23.5ZM159.243 24.64C157.923 24.64 156.963 23.68 156.963 22.12V18.76H158.163V22.12C158.163 22.96 158.703 23.5 159.483 23.5C160.383 23.5 161.043 22.84 161.043 21.88V18.76H162.243V24.52H161.043V23.704H161.031C160.767 24.112 160.107 24.64 159.243 24.64ZM166.265 24.58C165.125 24.58 164.465 23.92 164.465 22.66V19.9H163.385V18.76H164.045C164.405 18.76 164.585 18.58 164.585 18.1V16.84H165.665V18.76H167.045V19.9H165.665V22.54C165.665 23.14 165.965 23.44 166.505 23.44C166.769 23.44 167.033 23.332 167.165 23.26V24.4C167.009 24.472 166.661 24.58 166.265 24.58ZM173.253 23.104L174.705 18.76H175.941L173.601 25.18C173.157 26.404 172.461 27.04 171.501 27.04C171.105 27.04 170.757 26.932 170.601 26.86V25.72C170.733 25.816 171.009 25.924 171.321 25.924C171.801 25.924 172.173 25.6 172.365 25.12L172.605 24.52L170.061 18.76H171.369L173.229 23.104H173.253ZM179.596 24.64C177.916 24.64 176.596 23.32 176.596 21.64C176.596 19.96 177.916 18.64 179.596 18.64C181.276 18.64 182.596 19.96 182.596 21.64C182.596 23.32 181.276 24.64 179.596 24.64ZM179.596 23.5C180.616 23.5 181.396 22.72 181.396 21.64C181.396 20.56 180.616 19.78 179.596 19.78C178.576 19.78 177.796 20.56 177.796 21.64C177.796 22.72 178.576 23.5 179.596 23.5ZM186.137 24.64C184.817 24.64 183.857 23.68 183.857 22.12V18.76H185.057V22.12C185.057 22.96 185.597 23.5 186.377 23.5C187.277 23.5 187.937 22.84 187.937 21.88V18.76H189.137V24.52H187.937V23.704H187.925C187.661 24.112 187.001 24.64 186.137 24.64ZM192.02 24.52H190.82V18.76H192.02V19.516H192.044C192.296 19.144 192.932 18.64 193.76 18.64H194.06V19.9C193.952 19.876 193.76 19.84 193.58 19.84C192.74 19.84 192.02 20.56 192.02 21.58V24.52ZM198.875 24.52H197.675V18.76H198.875V19.516H198.899C199.151 19.144 199.787 18.64 200.615 18.64H200.915V19.9C200.807 19.876 200.615 19.84 200.435 19.84C199.595 19.84 198.875 20.56 198.875 21.58V24.52ZM204.522 24.64C202.842 24.64 201.522 23.32 201.522 21.64C201.522 19.96 202.842 18.64 204.462 18.64C206.082 18.64 207.282 19.84 207.282 21.46C207.282 21.724 207.246 21.952 207.222 22.06H202.782C202.902 22.84 203.622 23.5 204.582 23.5C205.326 23.5 205.842 23.14 206.202 22.804L206.982 23.572C206.61 24.04 205.746 24.64 204.522 24.64ZM202.758 21.1H206.034C205.866 20.284 205.326 19.72 204.462 19.72C203.538 19.72 202.986 20.284 202.758 21.1ZM214.058 27.04H212.858V23.704H212.846C212.582 24.112 211.862 24.64 210.878 24.64C209.438 24.64 208.178 23.38 208.178 21.64C208.178 19.9 209.438 18.64 210.878 18.64C211.862 18.64 212.582 19.168 212.846 19.576H212.858V18.76H214.058V27.04ZM211.118 23.5C212.078 23.5 212.858 22.72 212.858 21.64C212.858 20.56 212.078 19.78 211.118 19.78C210.158 19.78 209.378 20.56 209.378 21.64C209.378 22.72 210.158 23.5 211.118 23.5ZM217.954 24.64C216.634 24.64 215.674 23.68 215.674 22.12V18.76H216.874V22.12C216.874 22.96 217.414 23.5 218.194 23.5C219.094 23.5 219.754 22.84 219.754 21.88V18.76H220.954V24.52H219.754V23.704H219.742C219.478 24.112 218.818 24.64 217.954 24.64ZM225.276 24.64C223.596 24.64 222.276 23.32 222.276 21.64C222.276 19.96 223.596 18.64 225.216 18.64C226.836 18.64 228.036 19.84 228.036 21.46C228.036 21.724 228 21.952 227.976 22.06H223.536C223.656 22.84 224.376 23.5 225.336 23.5C226.08 23.5 226.596 23.14 226.956 22.804L227.736 23.572C227.364 24.04 226.5 24.64 225.276 24.64ZM223.512 21.1H226.788C226.62 20.284 226.08 19.72 225.216 19.72C224.292 19.72 223.74 20.284 223.512 21.1ZM231.152 24.64C230.06 24.64 229.22 24.028 228.872 23.56L229.652 22.78C229.928 23.116 230.504 23.56 231.164 23.56C231.836 23.56 232.172 23.236 232.172 22.852C232.172 21.88 229.112 22.36 229.112 20.32C229.112 19.42 229.892 18.64 231.212 18.64C232.22 18.64 232.94 19.084 233.252 19.42L232.472 20.2C232.244 19.996 231.776 19.72 231.212 19.72C230.612 19.72 230.312 20.02 230.312 20.32C230.312 21.28 233.372 20.8 233.372 22.84C233.372 23.8 232.532 24.64 231.152 24.64ZM237.035 24.58C235.895 24.58 235.235 23.92 235.235 22.66V19.9H234.155V18.76H234.815C235.175 18.76 235.355 18.58 235.355 18.1V16.84H236.435V18.76H237.815V19.9H236.435V22.54C236.435 23.14 236.735 23.44 237.275 23.44C237.539 23.44 237.803 23.332 237.935 23.26V24.4C237.779 24.472 237.431 24.58 237.035 24.58ZM239.793 24.64C239.373 24.64 239.013 24.28 239.013 23.86C239.013 23.44 239.373 23.08 239.793 23.08C240.213 23.08 240.573 23.44 240.573 23.86C240.573 24.28 240.213 24.64 239.793 24.64Z" fill="#586274"/>
</svg>
