<svg width="82" height="76" viewBox="0 0 82 76" fill="none" xmlns="http://www.w3.org/2000/svg">
<path d="M64.2283 42.049C64.2283 42.049 68.1969 15.0986 65.2138 9.65791C63.0027 5.62519 59.3235 3.78089 54.1505 3.30089C48.9775 2.82089 44.9824 3.98763 41.7534 7.48104C37.2157 12.3905 34.4219 39.2833 34.4219 39.2833" stroke="#893A00" stroke-width="2.27431"/>
<path d="M55.009 39.7939C55.009 39.7939 59.6735 12.8699 56.8327 7.40312C54.727 3.35103 51.0972 1.47567 45.939 0.952538C40.7809 0.429402 36.7573 1.56319 33.4394 5.03061C28.7767 9.90348 25.288 36.7796 25.288 36.7796" stroke="#CB7E45" stroke-width="2.27431"/>
<g clip-path="url(#clip0_1_2243)">
<path d="M79.017 33.9504L27.2759 25.5935L14.7739 83.9286L72.3872 93.2338L79.017 33.9504Z" fill="url(#paint0_linear_1_2243)"/>
</g>
<path d="M64.2435 31.6048L12.5024 23.2479L0.00048554 81.5829L57.6138 90.8882L64.2435 31.6048Z" fill="url(#paint1_radial_1_2243)"/>
<g clip-path="url(#clip1_1_2243)">
<mask id="mask0_1_2243" style="mask-type:alpha" maskUnits="userSpaceOnUse" x="0" y="23" width="65" height="68">
<path d="M64.2435 31.6048L12.5024 23.2479L0.000486148 81.5829L57.6138 90.8882L64.2435 31.6048Z" fill="url(#paint2_linear_1_2243)"/>
</mask>
<g mask="url(#mask0_1_2243)">
<path d="M17.4682 48.0606L13.5784 47.4327C13.3411 47.393 13.129 47.2611 12.9882 47.0655C12.8474 46.8699 12.7892 46.6265 12.8264 46.3881C12.8442 46.2693 12.8855 46.1553 12.9479 46.0528C13.0102 45.9502 13.0924 45.8612 13.1895 45.7908C13.2866 45.7205 13.3967 45.6704 13.5134 45.6433C13.6301 45.6162 13.7509 45.6127 13.8689 45.6331L19.6951 46.5736C19.8135 46.5914 19.9271 46.6327 20.0294 46.6951C20.1316 46.7575 20.2203 46.8398 20.2904 46.9371C20.3604 47.0344 20.4104 47.1448 20.4373 47.2618C20.4642 47.3787 20.4675 47.4999 20.4471 47.6182C20.3993 47.8568 20.2619 48.0678 20.0634 48.2078L14.4127 53.1117L18.5323 53.7767C18.6507 53.7944 18.7644 53.8357 18.8666 53.8982C18.9688 53.9606 19.0576 54.0429 19.1276 54.1402C19.1977 54.2375 19.2476 54.3479 19.2745 54.4648C19.3014 54.5818 19.3048 54.703 19.2843 54.8213C19.2446 55.0593 19.1128 55.2721 18.9176 55.4134C18.7224 55.5548 18.4796 55.6133 18.2418 55.5762L12.2103 54.6026C11.9706 54.5612 11.7571 54.4262 11.6166 54.2272C11.4762 54.0281 11.4202 53.7813 11.4611 53.5408C11.5057 53.3039 11.6365 53.0919 11.828 52.946L17.4682 48.0606Z" fill="url(#paint3_linear_1_2243)"/>
<path d="M20.7836 51.3662C20.934 50.4794 21.3325 49.6535 21.9327 48.9844C22.5329 48.3154 23.3101 47.8309 24.174 47.5872C25.0378 47.3434 25.9528 47.3506 26.8123 47.6077C27.6719 47.8649 28.4407 48.3615 29.0294 49.0398C29.1199 49.1482 29.1871 49.2741 29.2271 49.4096C29.267 49.5452 29.2787 49.6875 29.2615 49.8278C29.2204 50.0908 29.0783 50.3273 28.8657 50.4869L25.6519 53.2679C25.5572 53.3571 25.4429 53.4225 25.3182 53.4589C25.1935 53.4953 25.062 53.5016 24.9344 53.4773C24.8151 53.4646 24.6998 53.4274 24.5955 53.3681C24.4912 53.3087 24.4002 53.2285 24.3282 53.1324C24.2562 53.0363 24.2047 52.9264 24.1769 52.8095C24.1491 52.6925 24.1455 52.5711 24.1665 52.4527C24.1779 52.3459 24.2105 52.2425 24.2626 52.1486C24.3146 52.0547 24.3849 51.9723 24.4694 51.9062L26.9923 49.7567C26.6794 49.4873 26.2965 49.3127 25.8883 49.2533C24.3829 49.0103 22.987 50.0833 22.7292 51.6803C22.4714 53.2773 23.4417 54.7323 24.9641 54.9781C25.3107 55.0376 25.6658 55.0245 26.0072 54.9397C26.3485 54.8549 26.6687 54.7001 26.9476 54.4852C27.2639 54.3036 27.4923 54.1254 27.8595 54.1846C27.9844 54.1993 28.1049 54.2395 28.2137 54.3027C28.3224 54.3659 28.417 54.4509 28.4916 54.5523C28.5662 54.6537 28.6193 54.7694 28.6475 54.8922C28.6757 55.015 28.6785 55.1423 28.6556 55.2663C28.5994 55.5004 28.4636 55.7076 28.2716 55.8522C27.7745 56.2584 27.1952 56.5512 26.574 56.7102C25.9527 56.8691 25.3045 56.8904 24.6744 56.7726C24.0604 56.6833 23.4706 56.4711 22.9401 56.1488C22.4096 55.8265 21.9492 55.4005 21.5863 54.8962C21.2234 54.3919 20.9653 53.8196 20.8274 53.2132C20.6895 52.6068 20.6746 51.9787 20.7836 51.3662Z" fill="url(#paint4_linear_1_2243)"/>
<path d="M32.2173 56.8956L31.6603 60.3462C31.5894 60.574 31.4388 60.7686 31.2361 60.8942C31.0334 61.0199 30.7922 61.0681 30.5568 61.0301C30.3214 60.9921 30.1077 60.8704 29.9548 60.6874C29.8019 60.5043 29.7202 60.2722 29.7246 60.0337L31.4529 49.3275C31.5237 49.0997 31.6743 48.9051 31.877 48.7794C32.0797 48.6538 32.321 48.6055 32.5563 48.6435C32.7917 48.6815 33.0055 48.8032 33.1584 48.9863C33.3113 49.1693 33.393 49.4014 33.3886 49.64L33.3688 49.7622C34.286 49.1693 35.392 48.9422 36.4683 49.1259C39.0028 49.5351 40.5891 51.9038 40.1682 54.5107C39.7474 57.1176 37.4964 58.8669 34.9619 58.4578C33.8866 58.2911 32.91 57.7352 32.2173 56.8956ZM38.2154 54.1955C38.4799 52.557 37.4813 51.1312 35.9684 50.887C34.4555 50.6427 33.121 51.6392 32.8146 53.1957L32.7944 53.3204C32.53 54.9588 33.5286 56.3847 35.0415 56.6289C36.5544 56.8731 37.9509 55.8339 38.2154 54.1955Z" fill="url(#paint5_linear_1_2243)"/>
<path d="M41.3085 51.0194C41.3266 50.901 41.3682 50.7874 41.4308 50.6853C41.4935 50.5831 41.5759 50.4944 41.6733 50.4245C41.7707 50.3545 41.8811 50.3046 41.998 50.2778C42.115 50.2509 42.2361 50.2476 42.3544 50.268L42.9886 50.3704L43.2017 49.0508C43.2042 48.9089 43.2373 48.7694 43.2987 48.6414C43.36 48.5135 43.4482 48.4003 43.5572 48.3094C43.6662 48.2184 43.7935 48.152 43.9306 48.1145C44.0676 48.0769 44.2111 48.0692 44.3514 48.0919C44.4917 48.1145 44.6255 48.167 44.7438 48.2457C44.862 48.3245 44.962 48.4276 45.0369 48.5482C45.1117 48.6688 45.1598 48.8041 45.1778 48.9448C45.1957 49.0855 45.1832 49.2284 45.141 49.3638L44.928 50.6835L46.9898 51.0163C47.1085 51.0341 47.2225 51.0754 47.3251 51.1377C47.4276 51.2 47.5167 51.2821 47.5872 51.3791C47.6576 51.4762 47.7079 51.5863 47.7352 51.703C47.7625 51.8196 47.7663 51.9406 47.7462 52.0587C47.7065 52.2963 47.5743 52.5087 47.3784 52.6494C47.1825 52.7902 46.9387 52.8479 46.7003 52.8101L44.6385 52.4772L44.1256 55.6542C43.8755 57.2035 44.6121 58.1349 45.8095 58.3282C46.0504 58.3671 46.2661 58.4999 46.409 58.6974C46.5519 58.8949 46.6104 59.141 46.5716 59.3815C46.5328 59.6219 46.3999 59.8371 46.202 59.9796C46.0042 60.1221 45.7577 60.1804 45.5168 60.1415C43.2419 59.7742 41.774 57.8949 42.1862 55.3411L42.6991 52.1642L42.0649 52.0618C41.8266 52.0227 41.6134 51.8912 41.4717 51.6959C41.3301 51.5007 41.2714 51.2575 41.3085 51.0194Z" fill="url(#paint6_linear_1_2243)"/>
<path d="M48.0957 55.7776C48.2443 54.857 48.6626 54.0012 49.2976 53.3183C49.9325 52.6355 50.7558 52.1563 51.6631 51.9413C52.5705 51.7263 53.5212 51.7852 54.395 52.1105C55.2689 52.4359 56.0267 53.013 56.5725 53.769C57.1184 54.5251 57.4278 55.4259 57.4616 56.3578C57.4955 57.2897 57.2523 58.2106 56.7627 59.0042C56.2731 59.7979 55.5592 60.4285 54.7112 60.8163C53.8633 61.2042 52.9193 61.3319 51.9988 61.1833C51.3828 61.0951 50.7909 60.8837 50.2584 60.5617C49.7259 60.2397 49.2637 59.8137 48.8995 59.3092C48.5352 58.8047 48.2763 58.2319 48.1382 57.6252C48.0001 57.0184 47.9857 56.39 48.0957 55.7776ZM55.4554 56.9656C55.7106 55.3849 54.7566 53.9143 53.2124 53.665C51.6683 53.4158 50.3 54.5115 50.0448 56.0922C49.7896 57.673 50.7412 59.1431 52.2878 59.3928C53.8344 59.6425 55.203 58.5293 55.4554 56.9656Z" fill="url(#paint7_linear_1_2243)"/>
<path d="M36.0453 7.92586C33.6068 6.27795 30.7497 5.35645 27.8079 5.26887C24.8674 5.18141 21.9622 5.93074 19.4305 7.42951L19.4303 7.43047C19.0509 7.66517 18.7237 7.97526 18.469 8.34159C18.2461 8.6622 18.0831 9.01983 17.9869 9.39736L17.9497 9.56051C17.8134 10.3871 18.0048 11.2342 18.4833 11.9219L18.4887 11.9317L25.6984 24.0013L25.7015 24.0067C25.8949 24.3638 26.1703 24.6708 26.5047 24.9011C26.7973 25.1026 27.128 25.241 27.4757 25.3082L27.6376 25.3344C28.0053 25.4142 28.3857 25.418 28.7548 25.3447C29.1239 25.2713 29.4745 25.1229 29.7838 24.9084C30.093 24.694 30.3546 24.4177 30.5528 24.0978C30.7509 23.7778 30.8818 23.4203 30.936 23.0478L30.935 23.0477L30.9377 23.0372C31.0089 22.7106 31.0137 22.3728 30.9517 22.0443C30.8897 21.7159 30.7621 21.4033 30.5769 21.1251L30.5728 21.1195L24.8787 11.75L24.7857 11.5965L24.9509 11.5292C26.2413 10.9992 27.6558 10.8466 29.0292 11.0898C34.1071 11.91 37.4259 16.8149 36.5614 22.1679C35.697 27.5196 31.061 31.1389 25.9268 30.3108L25.9266 30.3117L25.9258 30.3106L25.9247 30.3114L25.9248 30.3105C24.753 30.133 23.6305 29.716 22.6281 29.0836C21.627 28.4519 20.7671 27.6196 20.1026 26.6399C19.2858 25.7267 18.7922 24.9929 17.6465 24.8078L17.6399 24.8058C17.2526 24.726 16.8525 24.7271 16.4654 24.808C16.0783 24.8889 15.7117 25.0479 15.3887 25.2761C15.0655 25.5043 14.7929 25.7969 14.5872 26.1348C14.3815 26.4728 14.2472 26.8495 14.1928 27.2414C14.1307 27.996 14.3324 28.7491 14.7638 29.3714L14.7648 29.3716L14.768 29.376C15.8959 31.1491 17.3964 32.6554 19.1656 33.789C20.8242 34.8517 22.6813 35.5637 24.6223 35.8821L25.0116 35.94L25.0174 35.9409C27.021 36.2966 29.0762 36.2461 31.0599 35.7921C33.0437 35.3381 34.9164 34.4893 36.5662 33.2974C38.2158 32.1055 39.6096 30.5947 40.664 28.8539C41.7184 27.1129 42.4127 25.1774 42.7049 23.1631L42.7052 23.1612C43.1514 20.2515 42.7619 17.2745 41.5829 14.5775C40.404 11.8806 38.4837 9.57369 36.0453 7.92586Z" stroke="#8812BF" stroke-width="0.305553"/>
<path d="M62.4323 73.7594L42.8935 70.6037C42.518 70.5387 42.133 70.5495 41.7617 70.6355C41.3903 70.7216 41.0395 70.8805 40.7304 71.104C40.4213 71.3276 40.1602 71.6113 39.9617 71.9375C39.764 72.2624 39.6326 72.6236 39.5755 72.9998C39.4808 73.77 39.685 74.5471 40.1459 75.1703L40.1536 75.1834L52.9663 96.7404L53.1337 97.0207L38.9956 94.7372C38.6201 94.6723 38.235 94.684 37.8636 94.77C37.4923 94.8561 37.1415 95.015 36.8324 95.2386C36.5233 95.4622 36.2622 95.7458 36.0637 96.072C35.8653 96.3981 35.7336 96.7606 35.6768 97.1382L35.6767 97.1391C35.5582 97.8984 35.7431 98.6739 36.1918 99.2967C36.6404 99.9195 37.3162 100.34 38.0723 100.466L58.2947 103.732C59.0611 103.848 59.8426 103.653 60.4671 103.193C61.0916 102.732 61.5092 102.041 61.6269 101.273C61.7158 100.606 61.5862 99.9314 61.2621 99.3485L61.1106 99.1044L61.1059 99.0967L48.3067 77.6092L48.1395 77.3279L61.5053 79.4867C62.2628 79.6048 63.0365 79.4187 63.6584 78.9689C64.2024 78.5753 64.5916 78.0075 64.7653 77.3641L64.8265 77.0831L64.8616 76.7989C64.882 76.5143 64.8594 76.2274 64.7952 75.9484C64.7095 75.5764 64.5509 75.2249 64.3279 74.9154C64.1049 74.6059 63.8219 74.3446 63.4966 74.146C63.1712 73.9474 62.8092 73.816 62.4323 73.7594Z" stroke="#8812BF" stroke-width="0.305553"/>
<path d="M10.3024 71.4129C8.09319 70.0498 5.5288 69.3721 2.93459 69.4661C0.340557 69.5602 -2.1672 70.4213 -4.27187 71.9405C-6.37666 73.46 -7.98436 75.5697 -8.89027 78.0024C-9.79606 80.435 -9.96009 83.0816 -9.36185 85.6075C-8.76356 88.1335 -7.42974 90.4256 -5.52894 92.1935C-3.62814 93.9614 -1.24554 95.1259 1.31708 95.5398L1.31997 95.5403C3.02459 95.8468 4.7734 95.8064 6.46221 95.4222C8.15107 95.038 9.74568 94.3174 11.15 93.3037C12.5542 92.2899 13.7401 91.004 14.6364 89.5221C15.5328 88.0401 16.1208 86.3919 16.3666 84.6774L16.3669 84.6755C16.7808 82.1128 16.4256 79.4849 15.346 77.1241C14.2664 74.7635 12.5114 72.776 10.3024 71.4129ZM4.73692 74.366C9.17876 75.0834 11.9111 79.3128 11.1802 83.8378C10.4493 88.3625 6.53156 91.5171 2.08286 90.7985C-2.36626 90.0798 -5.08242 85.8039 -4.35962 81.3279C-3.62879 76.803 0.295188 73.6487 4.73692 74.366Z" stroke="#8812BF" stroke-width="0.305553"/>
</g>
</g>
<defs>
<linearGradient id="paint0_linear_1_2243" x1="53.0807" y1="29.7614" x2="14.7739" y2="88.0331" gradientUnits="userSpaceOnUse">
<stop stop-color="#D17634"/>
<stop offset="1" stop-color="#793402"/>
</linearGradient>
<radialGradient id="paint1_radial_1_2243" cx="0" cy="0" r="1" gradientUnits="userSpaceOnUse" gradientTransform="translate(55.4343 38.5978) rotate(141.549) scale(84.0895 82.3646)">
<stop offset="0.354618" stop-color="#FFAD72"/>
<stop offset="1" stop-color="#D17430"/>
</radialGradient>
<linearGradient id="paint2_linear_1_2243" x1="38.3073" y1="27.4157" x2="28.8071" y2="86.2356" gradientUnits="userSpaceOnUse">
<stop stop-color="#FFC398"/>
<stop offset="1" stop-color="#99755B"/>
</linearGradient>
<linearGradient id="paint3_linear_1_2243" x1="16.6793" y1="46.0868" x2="15.2261" y2="55.0894" gradientUnits="userSpaceOnUse">
<stop stop-color="#8812BF"/>
<stop offset="1" stop-color="#8812BF"/>
</linearGradient>
<linearGradient id="paint4_linear_1_2243" x1="25.6771" y1="47.3837" x2="24.1743" y2="56.6932" gradientUnits="userSpaceOnUse">
<stop stop-color="#8812BF"/>
<stop offset="1" stop-color="#8812BF"/>
</linearGradient>
<linearGradient id="paint5_linear_1_2243" x1="36.2667" y1="49.0932" x2="34.2437" y2="61.6253" gradientUnits="userSpaceOnUse">
<stop stop-color="#8812BF"/>
<stop offset="1" stop-color="#8812BF"/>
</linearGradient>
<linearGradient id="paint6_linear_1_2243" x1="45.0689" y1="48.2077" x2="43.2027" y2="59.7679" gradientUnits="userSpaceOnUse">
<stop stop-color="#8812BF"/>
<stop offset="1" stop-color="#8812BF"/>
</linearGradient>
<linearGradient id="paint7_linear_1_2243" x1="53.5011" y1="51.8745" x2="51.9983" y2="61.184" gradientUnits="userSpaceOnUse">
<stop stop-color="#8812BF"/>
<stop offset="1" stop-color="#8812BF"/>
</linearGradient>
<clipPath id="clip0_1_2243">
<rect width="59.3577" height="59.7743" fill="white" transform="matrix(-0.987207 -0.159446 -0.159446 0.987207 81.8874 34.4141)"/>
</clipPath>
<clipPath id="clip1_1_2243">
<rect width="58.3599" height="59.5821" fill="white" transform="matrix(-0.987207 -0.159446 -0.159446 0.987207 67.1139 32.0684)"/>
</clipPath>
</defs>
</svg>
